<svg xmlns="http://www.w3.org/2000/svg" xmlns:xlink="http://www.w3.org/1999/xlink" width="150" height="100" viewBox="0 0 150 100">
  <defs>
    <path id="path-2" fill-rule="evenodd" d="M18 16h114c1.10383005 0 2 .89616995 2 2v68c0 1.10383005-.89616995 2-2 2H18c-1.10383005 0-2-.89616995-2-2V18c0-1.10383005.89616995-2 2-2z"/>
    <mask id="mask-3" x="0" y="0" maskContentUnits="userSpaceOnUse" maskUnits="userSpaceOnUse">
      <rect width="150" height="100" x="0" y="0" fill="black"/>
      <use fill="white" xlink:href="#path-2"/>
    </mask>
    <path id="path-8" fill-rule="evenodd" d="M26 40h44c1.10383005 0 2 .89616995 2 2v2c0 1.10383005-.89616995 2-2 2H26c-1.10383005 0-2-.89616995-2-2v-2c0-1.10383005.89616995-2 2-2z"/>
    <mask id="mask-9" x="0" y="0" maskContentUnits="userSpaceOnUse" maskUnits="userSpaceOnUse">
      <rect width="150" height="100" x="0" y="0" fill="black"/>
      <use fill="white" xlink:href="#path-8"/>
    </mask>
    <rect id="rect-10" width="16" height="16" x="87.314" y="47.314"/>
    <path id="path-13" fill-rule="evenodd" d="M30 22h74c3.31149015 0 6 2.68850985 6 6s-2.68850985 6-6 6H30c-3.31149015 0-6-2.68850985-6-6s2.68850985-6 6-6z"/>
    <mask id="mask-14" x="0" y="0" maskContentUnits="userSpaceOnUse" maskUnits="userSpaceOnUse">
      <rect width="150" height="100" x="0" y="0" fill="black"/>
      <use fill="white" xlink:href="#path-13"/>
    </mask>
  </defs>
  <rect width="150" height="100" x="0" y="0" fill="rgb(227,163,141)"/>
  <g>
    <use fill="rgb(238,198,185)" xlink:href="#path-2"/>
    <use fill-opacity="0" stroke="rgb(28,35,33)" stroke-linecap="butt" stroke-linejoin="miter" stroke-width="2" mask="url(#mask-3)" xlink:href="#path-2"/>
  </g>
  <g>
    <path fill="rgb(227,163,141)" fill-rule="evenodd" d="M25 76h44c.55191502 0 1 .44808498 1 1s-.44808498 1-1 1H25c-.55191502 0-1-.44808498-1-1s.44808498-1 1-1z"/>
    <path fill="rgb(227,163,141)" fill-rule="evenodd" d="M25 68h40c.55191502 0 1 .44808498 1 1s-.44808498 1-1 1H25c-.55191502 0-1-.44808498-1-1s.44808498-1 1-1z"/>
    <path fill="rgb(227,163,141)" fill-rule="evenodd" d="M25 60h46c.55191502 0 1 .44808498 1 1s-.44808498 1-1 1H25c-.55191502 0-1-.44808498-1-1s.44808498-1 1-1z"/>
    <path fill="rgb(227,163,141)" fill-rule="evenodd" d="M25 52h42c.55191502 0 1 .44808498 1 1s-.44808498 1-1 1H25c-.55191502 0-1-.44808498-1-1s.44808498-1 1-1z"/>
  </g>
  <g>
    <use fill="rgb(57,188,157)" xlink:href="#path-8"/>
    <use fill-opacity="0" stroke="rgb(28,35,33)" stroke-linecap="butt" stroke-linejoin="miter" stroke-width="2" mask="url(#mask-9)" xlink:href="#path-8"/>
  </g>
  <g transform="rotate(45.000016 95.3137085 55.3137085)">
    <path fill="none" stroke="rgb(28,35,33)" stroke-linecap="butt" stroke-linejoin="miter" stroke-width="1" d="M87.3137085 53.46755465V47.3137085h6.15384615"/>
    <path fill="none" stroke="rgb(28,35,33)" stroke-linecap="butt" stroke-linejoin="miter" stroke-width="1" d="M87.3137085 47.3137085l16 16"/>
  </g>
  <g>
    <g>
      <use fill="rgb(243,231,229)" xlink:href="#path-13"/>
      <use fill-opacity="0" stroke="rgb(28,35,33)" stroke-linecap="butt" stroke-linejoin="miter" stroke-width="2" mask="url(#mask-14)" xlink:href="#path-13"/>
    </g>
    <path fill="rgb(213,73,23)" fill-rule="evenodd" d="M34.01715088 28.77358627h.27101326L36 30.48884964 35.48884964 31l-1.71526337-1.71183586v-.2710104l-.09262848-.09605598c-.39107894.33619308-.89879608.53859329-1.45111084.53859329C30.9982853 29.45969105 30 28.46140575 30 27.22984695 30 25.9982853 30.9982853 25 32.22984695 25c1.23156167 0 2.22984696.9982853 2.22984696 2.22984695 0 .55231476-.20240593 1.0600319-.5385933 1.4511137l.09605027.09262562zm-3.33104324-1.54373932c0 .85420132.68953514 1.54373932 1.54373931 1.54373932.85420418 0 1.54373932-.689538 1.54373932-1.54373932 0-.85420131-.68953514-1.54373931-1.54373932-1.54373931-.85420417 0-1.54373931.689538-1.54373931 1.54373931z"/>
  </g>
</svg>
